<?xml version="1.0" encoding="UTF-8"?>
<svg width="118px" height="119px" viewBox="0 0 118 119" version="1.1" xmlns="http://www.w3.org/2000/svg" xmlns:xlink="http://www.w3.org/1999/xlink">
    <!-- Generator: Sketch 46.2 (44496) - http://www.bohemiancoding.com/sketch -->
    <title>activity_schedular@3x</title>
    <desc>Created with Sketch.</desc>
    <defs>
        <polygon id="path-1" points="0.839196582 45 55 45 55 0.915298902 0.839196582 0.915298902 0.839196582 45"></polygon>
    </defs>
    <g id="End_User_mvp2" stroke="none" stroke-width="1" fill="none" fill-rule="evenodd" opacity="0.75">
        <g id="Practice_HD" transform="translate(-1239.000000, -639.000000)">
            <g id="activity_schedular" transform="translate(1239.000000, 639.000000)">
                <path d="M98,47 C98,45.3428 96.5727908,44 94.8114182,44 L17.1885818,44 C15.4272092,44 14,45.3428 14,47 C14,48.6572 15.4272092,50 17.1885818,50 L94.8114182,50 C96.5727908,50 98,48.6572 98,47" id="Fill-1" fill="#FFFFFF"></path>
                <path d="M38.2072963,25.2539425 C38.2072963,25.5011032 38.0051891,25.7021613 37.7567387,25.7021613 L28.4881249,25.7021613 C28.2383872,25.7021613 28.0375673,25.5011032 28.0375673,25.2539425 L28.0375673,6.85135901 C28.0375673,6.60419835 28.2383872,6.4031402 28.4881249,6.4031402 L37.7567387,6.4031402 C38.0051891,6.4031402 38.2072963,6.60419835 38.2072963,6.85135901 L38.2072963,25.2539425 Z M74.7539557,6.85135901 C74.7539557,6.60419835 74.9547756,6.4031402 75.2045133,6.4031402 L84.4731271,6.4031402 C84.7215775,6.4031402 84.9236848,6.60419835 84.9236848,6.85135901 L84.9236848,25.2539425 C84.9236848,25.5011032 84.7215775,25.7021613 84.4731271,25.7021613 L75.2045133,25.7021613 C74.9547756,25.7021613 74.7539557,25.5011032 74.7539557,25.2539425 L74.7539557,6.85135901 Z M26.6086559,90.7195007 L26.6086559,104.62709 L9.4231011,87.5294634 L23.4032603,87.5294634 C25.1733081,87.5294634 26.6086559,88.9586411 26.6086559,90.7195007 L26.6086559,90.7195007 Z M37.7567387,1.44056199e-05 L28.4881249,1.44056199e-05 C24.6879932,0.00641753142 21.6074664,3.06967291 21.6010299,6.85135901 L21.6010299,13.4465786 L9.64194337,13.4465786 C4.30862848,13.4529817 -0.007713495,17.7584435 1.0349872e-05,23.0640735 L1.0349872e-05,23.1024923 L1.0349872e-05,85.8531251 C-0.00127695761,86.7021796 0.335997602,87.5179378 0.93974481,88.118551 L25.9778753,113.06641 C26.5829098,113.667023 27.4016374,114.002547 28.2564095,113.999985 L60.5034619,113.999985 C62.2812335,113.999985 63.7217306,112.566966 63.7217306,110.798423 C63.7217306,109.03116 62.2812335,107.59686 60.5034619,107.59686 L33.0451933,107.59686 L33.0451933,90.7195007 C33.0374695,85.4253963 28.7249894,81.1340214 23.4032603,81.1263376 L6.43654775,81.1263376 L6.43654775,23.1024923 C6.40050314,21.3416327 7.8062429,19.8855619 9.57629069,19.8497044 C9.59817492,19.8497044 9.62005914,19.8497044 9.64194337,19.8497044 L21.6010299,19.8497044 L21.6010299,25.1899113 C21.6074664,28.9703168 24.6879932,32.0335721 28.4881249,32.0412559 L37.7567387,32.0412559 C41.5568704,32.0335721 44.6361099,28.9703168 44.6438337,25.1899113 L44.6438337,19.8497044 L68.3174183,19.8497044 L68.3174183,25.1899113 C68.3238548,28.9703168 71.4043816,32.0335721 75.2045133,32.0412559 L84.4731271,32.0412559 C88.2629604,32.0553428 91.3563602,29.024103 91.3988414,25.2539425 L91.3988414,19.8497044 L103.357928,19.8497044 C105.127976,19.8497044 106.563323,21.2776014 106.563323,23.038461 L106.563323,65.5808288 C106.563323,67.3493721 108.003821,68.7823917 109.781592,68.7823917 C111.559364,68.7823917 112.999861,67.3493721 112.999861,65.5808288 L112.999861,23.1024923 C113.028182,17.7981429 108.728575,13.4747523 103.396547,13.4465786 L103.319309,13.4465786 L91.3988414,13.4465786 L91.3988414,6.85135901 C91.3911175,3.05942791 88.2964304,-0.00766934533 84.4860002,1.44056199e-05 L84.4602541,1.44056199e-05 L75.1916402,1.44056199e-05 C71.3915085,0.00641753142 68.3109817,3.06967291 68.3032579,6.85135901 L68.3032579,13.4465786 L44.6438337,13.4465786 L44.6438337,6.85135901 C44.6361099,3.06967291 41.5568704,0.00641753142 37.7567387,1.44056199e-05 L37.7567387,1.44056199e-05 Z" id="Fill-3" fill="#FFFFFF"></path>
                <g id="Group-7" transform="translate(63.000000, 74.000000)">
                    <mask id="mask-2" fill="white">
                        <use xlink:href="#path-1"></use>
                    </mask>
                    <g id="Clip-6"></g>
                    <path d="M26.2210581,35.6990143 L23.2536163,38.5661571 L7.26524419,22.3790143 L13.0850116,16.6318714 L21.0536163,24.6418714 C22.3019884,25.8993 24.3254767,25.9018714 25.5751279,24.6470143 C25.577686,24.6457286 25.5789651,24.6431571 25.5815233,24.6418714 L42.7594302,7.37472857 L42.8617558,7.37472857 L48.6047791,13.2247286 L26.2210581,35.6990143 Z M55.0001279,13.1733 C55.0103605,11.4465857 54.3286163,9.78672857 53.1071047,8.57044286 L47.3896628,2.8233 C44.8635,0.281442857 40.7653605,0.278871429 38.2379186,2.81815714 C38.2353605,2.82072857 38.2340814,2.82201429 38.2315233,2.8233 L23.3175698,17.8275857 L17.6129186,12.0933 C15.0867558,9.55144286 10.9886163,9.54887143 8.45989535,12.0881571 L8.45477907,12.0933 L2.73733721,17.8404429 C0.208616279,20.3797286 0.20605814,24.4991571 2.73222093,27.0410143 L2.73733721,27.0461571 L18.7385,43.0918714 C21.2646628,45.6350143 25.3628023,45.6363 27.8915233,43.0970143 C27.8940814,43.0957286 27.8953605,43.0931571 27.8966395,43.0918714 L53.1071047,17.7633 C54.3247791,16.5495857 55.0065233,14.8961571 55.0001279,13.1733 L55.0001279,13.1733 Z" id="Fill-5" fill="#FFFFFF" mask="url(#mask-2)"></path>
                </g>
            </g>
        </g>
    </g>
</svg>