<?xml version="1.0" encoding="UTF-8"?>
<svg width="28px" height="28px" viewBox="0 0 28 28" version="1.1" xmlns="http://www.w3.org/2000/svg" xmlns:xlink="http://www.w3.org/1999/xlink">
    <!-- Generator: Sketch 43.2 (39069) - http://www.bohemiancoding.com/sketch -->
    <title>Arrow Left</title>
    <desc>Created with Sketch.</desc>
    <defs></defs>
    <g id="Page-1" stroke="none" stroke-width="1" fill="none" fill-rule="evenodd" opacity="0.7">
        <g id="My_infos" transform="translate(-12.000000, -11.000000)">
            <g id="Arrow-Left" transform="translate(12.000000, 11.000000)">
                <rect id="BG" stroke="#FFFFFF" x="1.46948242" y="1.46948242" width="25.0610352" height="25.0610352" rx="12.5305176"></rect>
                <path d="M15.1867484,19.202685 C15.0948047,19.186815 15.0063763,19.1519692 14.9283572,19.1007756 C14.888904,19.0749058 14.8544678,19.0448039 14.8200657,19.0126885 L10.7245773,14.9172001 C10.6963185,14.8869276 10.6884347,14.8800336 10.6633498,14.8469625 C10.6351933,14.8098301 10.6108593,14.7697967 10.5908255,14.7276814 C10.5033186,14.5436916 10.5033186,14.3253679 10.5908255,14.1413781 C10.6108593,14.0992628 10.6351933,14.0592294 10.6633498,14.022097 C10.6884347,13.9890601 10.6963185,13.9821319 10.7245773,13.9518935 L14.8200657,9.85640517 C14.8503382,9.8281463 14.8572664,9.82022835 14.8903033,9.79517762 C14.9770594,9.72934264 15.0794466,9.68490659 15.1867484,9.66637451 C15.2633682,9.65320069 15.3421039,9.65320069 15.4187237,9.66637451 C15.4799854,9.67695452 15.5397454,9.69593028 15.5958877,9.72261921 C15.8091261,9.82401668 15.9575876,10.0343541 15.981751,10.2692304 C15.991273,10.3620615 15.9815462,10.456599 15.9533215,10.5455393 C15.9298065,10.6196336 15.8935956,10.689564 15.846634,10.7514741 C15.8215491,10.7845452 15.8136653,10.7914393 15.7854064,10.8217118 L12.1725714,14.4345468 L15.7854064,18.0473819 L15.8172147,18.0814427 C15.8433235,18.113524 15.8507636,18.1209983 15.8734936,18.1556734 C15.9161208,18.2206552 15.9475195,18.2929064 15.9659151,18.3683999 C15.9806247,18.4288084 15.987041,18.4911963 15.984925,18.5533112 C15.9768705,18.7893137 15.8430846,19.0092756 15.6372863,19.1250073 C15.5695401,19.1630953 15.4953093,19.1894771 15.4187237,19.202685 C15.3778371,19.2097156 15.3673253,19.2093743 15.3260292,19.212207 L15.279443,19.212207 C15.2381468,19.2093743 15.227635,19.2097156 15.1867484,19.202685 Z" id="Shape" fill="#FFFFFF"></path>
            </g>
        </g>
    </g>
</svg>