<?xml version="1.0" encoding="UTF-8"?>
<svg width="19px" height="21px" viewBox="0 0 19 21" version="1.1" xmlns="http://www.w3.org/2000/svg" xmlns:xlink="http://www.w3.org/1999/xlink">
    <!-- Generator: Sketch 43.2 (39069) - http://www.bohemiancoding.com/sketch -->
    <title>Hand Copy</title>
    <desc>Created with Sketch.</desc>
    <defs></defs>
    <g id="Page-1" stroke="none" stroke-width="1" fill="none" fill-rule="evenodd">
        <g id="Menu_open-" transform="translate(-20.000000, -186.000000)" stroke="#FFFFFF" fill="#FFFFFF">
            <g id="Group-2" transform="translate(0.000000, -5.000000)">
                <g id="Hand-Copy" transform="translate(21.000000, 192.000000)">
                    <path d="M15.74775,11.0225821 C15.74775,14.8912744 12.51775,18.0384538 8.54725,18.0384538 C4.57675,18.0384538 1.34625,14.8912744 1.34625,11.0225821 L1.34625,7.26691538 C1.34625,6.88106923 1.66825,6.56683846 2.06425,6.56683846 L3.78725,6.56683846 L3.78725,11.7665051 C3.78725,11.9940179 3.97675,12.178659 4.21025,12.178659 C4.44375,12.178659 4.63325,11.9940179 4.63325,11.7665051 L4.63325,2.18222308 C4.63325,2.17881282 4.63275,2.17491538 4.63275,2.17150513 L4.63275,1.52404359 C4.63275,1.13868462 4.95475,0.824453846 5.35075,0.824453846 L6.77725,0.824453846 L6.77725,8.67388974 C6.77725,8.90140256 6.96675,9.08604359 7.20025,9.08604359 C7.43425,9.08604359 7.62375,8.90140256 7.62375,8.67388974 L7.62375,0.824453846 L9.76725,0.824453846 L9.76725,8.67388974 C9.76725,8.90140256 9.95675,9.08604359 10.19075,9.08604359 C10.42425,9.08604359 10.61375,8.90140256 10.61375,8.67388974 L10.61375,0.824453846 L12.03975,0.824453846 C12.43575,0.824453846 12.75775,1.13868462 12.75775,1.52404359 L12.75775,2.28647949 L12.75775,2.28745385 L12.75775,8.67388974 C12.75775,8.90140256 12.94725,9.08604359 13.18075,9.08604359 C13.41425,9.08604359 13.60375,8.90140256 13.60375,8.67388974 L13.60375,2.69912051 L15.02975,2.69912051 C15.42575,2.69912051 15.74775,3.0128641 15.74775,3.39871026 L15.74775,11.0225821 Z M15.02975,1.87432564 L13.60375,1.87432564 L13.60375,1.33306923 C13.60375,1.26145385 13.58525,1.19422308 13.55225,1.13527436 C13.37525,0.482453846 12.76425,0.000146153846 12.03975,0.000146153846 L10.19175,0.000146153846 L10.19075,0.000146153846 L10.18975,0.000146153846 L7.20125,0.000146153846 L7.20025,0.000146153846 L7.19925,0.000146153846 L5.35075,0.000146153846 C4.48825,0.000146153846 3.78675,0.683658974 3.78675,1.52404359 L3.78675,5.74253077 L2.06425,5.74253077 C1.20175,5.74253077 0.49975,6.42604359 0.49975,7.26691538 L0.49975,11.0225821 C0.49975,15.3458128 4.10975,18.8632487 8.54725,18.8632487 C12.98425,18.8632487 16.59425,15.3458128 16.59425,11.0225821 L16.59425,3.39871026 C16.59425,2.55783846 15.89225,1.87432564 15.02975,1.87432564 L15.02975,1.87432564 Z" id="Fill-1"></path>
                </g>
            </g>
        </g>
    </g>
</svg>