<?xml version="1.0" encoding="UTF-8"?>
<svg width="126px" height="126px" viewBox="0 0 126 126" version="1.1" xmlns="http://www.w3.org/2000/svg" xmlns:xlink="http://www.w3.org/1999/xlink">
    <!-- Generator: Sketch 45.2 (43514) - http://www.bohemiancoding.com/sketch -->
    <title>montain</title>
    <desc>Created with Sketch.</desc>
    <defs></defs>
    <g id="End_User_mvp2" stroke="none" stroke-width="1" fill="none" fill-rule="evenodd" opacity="0.75">
        <g id="Practice_HD" transform="translate(-1229.000000, -386.000000)" stroke="#FFFFFF" stroke-width="2" fill="#FFFFFF">
            <g id="montain" transform="translate(1230.000000, 387.480469)">
                <path d="M82.3535982,76.8971021 C81.6296475,77.6210529 80.4713262,78.0554233 79.4577952,78.0554233 C78.4442641,78.0554233 77.2859429,77.6210529 76.5619921,76.8971021 C73.2318186,73.5669286 67.874583,73.5669286 64.5444094,76.8971021 C62.9517178,78.4897938 60.345495,78.4897938 58.6080132,76.8971021 C57.0153215,75.3044104 54.8434692,74.4356695 52.6716169,74.4356695 C50.3549745,74.4356695 48.3279124,75.3044104 46.5904305,76.8971021 C44.9977388,78.4897938 42.2467259,78.4897938 40.7988244,76.8971021 L37.6134411,73.7117188 L48.6174927,57.784802 C51.6580859,53.4410974 56.4361609,50.9796648 61.6486064,50.9796648 C66.8610519,50.9796648 71.6391269,53.4410974 74.6797201,57.784802 L85.5389816,73.5669286 L82.3535982,76.8971021 Z M63.9652488,4.7916061 L80.4713262,4.7916061 C83.2223391,4.7916061 85.5389816,7.10824855 85.5389816,9.85926145 L85.5389816,28.2476108 L63.9652488,28.2476108 L63.9652488,4.7916061 Z M95.5295021,26.0757585 L104.361701,38.0933412 L94.9503415,38.0933412 C92.1993286,38.0933412 89.8826862,35.7766988 89.8826862,33.0256859 L89.8826862,32.7361056 L89.8826862,14.202966 L104.361701,14.202966 L95.5295021,26.0757585 Z M123.184421,119.899777 L78.4442641,55.3233694 C75.1140906,50.4005042 69.7568549,47.359911 63.9652488,46.7807504 L63.9652488,32.5913154 L81.3400671,32.5913154 L84.6702407,35.9214889 L87.855624,39.2516624 C88.1452043,39.5412427 88.4347846,39.830823 88.722917,40.1204033 L89.0139452,40.4099836 C90.6066369,41.713095 92.7784892,42.5818359 94.9503415,42.5818359 L113.049111,42.5818359 L100.886738,26.0757585 L113.049111,9.71447129 L89.8826862,9.71447129 C89.8826862,4.64681595 85.6837717,0.447901526 80.4713262,0.447901526 L59.6215443,0.447901526 L59.6215443,46.6359602 C53.8299381,47.2151208 48.4727025,50.4005042 45.142529,55.1785792 L0.402371834,119.899777 C-0.321578929,120.913309 -0.0319986237,122.21642 0.981532445,122.940371 C1.99506351,123.664321 3.29817489,123.374741 4.02212565,122.36121 L35.1520085,77.3314726 L37.7582312,79.9376953 C39.3509229,81.530387 41.5227752,82.3991279 43.6946275,82.3991279 C46.0112699,82.3991279 48.038332,81.530387 49.7758139,79.9376953 C51.3685056,78.3450036 53.9747283,78.3450036 55.7122101,79.9376953 C59.0423836,83.2678688 64.3996193,83.2678688 67.7283449,79.9376953 C68.4522957,79.2137445 69.6120648,78.7793741 70.624148,78.7793741 C71.6391269,78.7793741 72.7960002,79.2137445 73.519951,79.9376953 C76.8515724,83.2678688 82.2073602,83.2678688 85.5389816,79.9376953 L88.2899945,77.1866824 L119.564667,122.36121 C119.999038,122.940371 120.722989,123.229951 121.300701,123.229951 C121.73652,123.229951 122.17089,123.085161 122.605261,122.79558 C123.618792,122.21642 123.763582,120.913309 123.184421,119.899777 L123.184421,119.899777 Z" id="Fill-1"></path>
                <path d="M7.49679973,46.2013002 C9.95823233,43.7398676 13.8675664,43.7398676 16.328999,46.2013002 C16.7633695,46.6356706 17.3425301,46.7804608 17.9216907,46.7804608 C18.5008513,46.7804608 19.0800119,46.6356706 19.5143824,46.2013002 C21.975815,43.7398676 25.8851491,43.7398676 28.3465817,46.2013002 C28.7809522,46.6356706 29.3601128,46.7804608 29.9392734,46.7804608 C30.518434,46.7804608 31.0975946,46.6356706 31.5319651,46.2013002 C32.400706,45.3325593 32.400706,44.0294479 31.5319651,43.160707 C27.9122113,39.5409532 22.2653953,39.1065827 18.0664809,41.8575956 C14.0123566,39.1065827 8.2207505,39.5409532 4.60099668,43.160707 C3.73225576,44.0294479 3.73225576,45.3325593 4.60099668,46.2013002 C5.32494744,47.0700411 6.77284897,47.0700411 7.49679973,46.2013002" id="Fill-4"></path>
                <path d="M22.2656849,22.4558599 C24.7271175,19.9944273 28.6364516,19.9944273 31.0978842,22.4558599 C31.5322546,22.8902304 32.1114153,23.0350205 32.6905759,23.0350205 C33.2697365,23.0350205 33.8488971,22.8902304 34.2832675,22.4558599 C35.4415888,21.2975387 37.0342804,20.5735879 38.6269721,20.5735879 C40.364454,20.5735879 41.8123555,21.1527486 43.1154669,22.4558599 C43.9842078,23.3246008 45.2873191,23.3246008 46.1560601,22.4558599 C47.024801,21.587119 47.024801,20.2840076 46.1560601,19.4152667 C44.1289979,17.3882046 41.5227752,16.3746735 38.6269721,16.3746735 C36.4551198,16.3746735 34.4280577,16.9538341 32.6905759,18.2569455 C28.6364516,15.5059326 22.8448455,15.9403031 19.2250917,19.5600569 C18.3563508,20.4287978 18.3563508,21.7319092 19.2250917,22.6006501 C20.0938326,23.3246008 21.5417341,23.3246008 22.2656849,22.4558599" id="Fill-6"></path>
            </g>
        </g>
    </g>
</svg>