<?xml version="1.0" encoding="UTF-8"?>
<svg width="140px" height="139px" viewBox="0 0 140 139" version="1.1" xmlns="http://www.w3.org/2000/svg" xmlns:xlink="http://www.w3.org/1999/xlink">
    <!-- Generator: Sketch 45.2 (43514) - http://www.bohemiancoding.com/sketch -->
    <title>quiz</title>
    <desc>Created with Sketch.</desc>
    <defs></defs>
    <g id="End_User_mvp2" stroke="none" stroke-width="1" fill="none" fill-rule="evenodd" opacity="0.75">
        <g id="Practice_HD" transform="translate(-640.000000, -385.000000)" fill="#FFFFFF">
            <g id="quiz" transform="translate(640.000000, 385.927963)">
                <path d="M26.1269439,115.394002 C38.1017932,115.394002 47.8993972,105.596398 47.8993972,93.6215491 C47.8993972,81.6466998 38.1017932,71.8490958 26.1269439,71.8490958 C14.1520946,71.8490958 4.35449065,81.6466998 4.35449065,93.6215491 C4.35449065,105.596398 14.1520946,115.394002 26.1269439,115.394002 Z M26.1269439,67.4946051 C40.4967631,67.4946051 52.2538878,79.2517299 52.2538878,93.6215491 C52.2538878,107.991368 40.4967631,119.748493 26.1269439,119.748493 C11.7571248,119.748493 0,107.991368 0,93.6215491 C0,84.9125678 4.35449065,77.0744846 10.8862266,72.5022694 C11.3216757,57.4792766 17.4179626,43.327182 27.8687402,32.6586799 L21.7724533,32.6586799 L21.7724533,28.3041893 L34.8359252,28.3041893 L34.8359252,32.2232308 L34.8359252,41.3676612 L30.4814346,41.3676612 L30.4814346,36.1422724 C21.7724533,45.2867028 16.32934,57.2615521 15.4584418,69.889575 C18.7243098,68.3655033 22.2079023,67.4946051 26.1269439,67.4946051 Z" id="Fill-1"></path>
                <path d="M113.216757,115.394002 C101.241908,115.394002 91.4443037,105.596398 91.4443037,93.6215491 C91.4443037,81.6466998 101.241908,71.8490958 113.216757,71.8490958 C125.191606,71.8490958 134.98921,81.6466998 134.98921,93.6215491 C134.98921,105.596398 125.191606,115.394002 113.216757,115.394002 M113.216757,67.4946051 C98.8469378,67.4946051 87.0898131,79.2517299 87.0898131,93.6215491 C87.0898131,104.290051 93.4038245,113.434482 102.548255,117.353523 C88.6138848,128.022025 70.7604731,131.070169 53.9956841,126.062504 L59.4387974,123.885259 L57.9147257,119.748493 L44.6335292,124.973882 L52.4716124,138.037354 L56.1729294,135.860108 L52.6893369,130.199271 C58.3501748,131.941067 64.0110126,132.59424 69.6718505,132.59424 C83.1707715,132.59424 96.451968,127.804301 107.338195,118.877595 C109.297715,119.313044 111.257236,119.530768 113.216757,119.530768 C127.586576,119.530768 139.343701,107.773644 139.343701,93.4038245 C139.343701,79.0340054 127.586576,67.4946051 113.216757,67.4946051" id="Fill-3"></path>
                <path d="M69.6718505,4.35449065 C81.6466998,4.35449065 91.4443037,14.1520946 91.4443037,26.1269439 C91.4443037,38.1017932 81.6466998,47.8993972 69.6718505,47.8993972 C57.6970012,47.8993972 47.8993972,38.1017932 47.8993972,26.1269439 C47.8993972,14.1520946 57.6970012,4.35449065 69.6718505,4.35449065 M69.6718505,52.2538878 C84.0416696,52.2538878 95.7987944,40.7144876 95.7987944,26.3446685 C107.338195,32.6586799 116.047176,42.8917329 120.619391,55.0843068 L113.869931,52.4716124 L112.345859,56.6083785 L125.191606,61.8337673 L130.416995,48.9880199 L126.280229,47.4639481 L124.102984,52.6893369 C118.65987,38.9726914 108.426817,27.8687402 95.1456208,21.5547287 C92.9683755,9.14443037 82.2998734,-7.10542736e-15 69.6718505,-7.10542736e-15 C55.3020313,-7.10542736e-15 43.5449065,11.7571248 43.5449065,26.1269439 C43.5449065,40.4967631 55.3020313,52.2538878 69.6718505,52.2538878" id="Fill-5"></path>
                <polygon id="Fill-7" points="67.4946051 71.8490958 71.8490958 71.8490958 71.8490958 67.4946051 67.4946051 67.4946051"></polygon>
                <polygon id="Fill-9" points="76.2035864 71.8490958 80.5580771 71.8490958 80.5580771 67.4946051 76.2035864 67.4946051"></polygon>
                <polygon id="Fill-10" points="58.7856238 71.8490958 63.1401145 71.8490958 63.1401145 67.4946051 58.7856238 67.4946051"></polygon>
                <polygon id="Fill-11" points="120.401231 83.3880606 113.216322 90.5729702 106.031412 83.3880606 102.983269 86.436204 110.168178 93.6211136 102.983269 100.806023 106.031412 103.854167 113.216322 96.6714343 120.401231 103.854167 123.449375 100.806023 116.266642 93.6211136 123.449375 86.436204"></polygon>
                <polygon id="Fill-12" points="82.0825843 21.1197151 79.0344408 18.0715717 67.4950406 29.6109719 60.310131 22.4260623 57.2619875 25.4742058 67.4950406 35.7072588"></polygon>
                <polygon id="Fill-13" points="23.9496986 108.862266 28.3041893 108.862266 28.3041893 104.507776 23.9496986 104.507776"></polygon>
                <path d="M26.1269439,78.3808318 C21.3370042,78.3808318 17.4179626,82.2998734 17.4179626,87.0898131 L21.7724533,87.0898131 C21.7724533,84.6948432 23.7319741,82.7353224 26.1269439,82.7353224 C28.5219138,82.7353224 30.4814346,84.6948432 30.4814346,87.0898131 C30.4814346,89.4847829 28.5219138,91.4443037 26.1269439,91.4443037 L23.9496986,91.4443037 L23.9496986,100.153285 L28.3041893,100.153285 L28.3041893,95.5810699 C32.0055063,94.7101717 34.8359252,91.2265792 34.8359252,87.0898131 C34.8359252,82.2998734 30.9168836,78.3808318 26.1269439,78.3808318" id="Fill-14"></path>
            </g>
        </g>
    </g>
</svg>