<?xml version="1.0" encoding="UTF-8"?>
<svg width="126px" height="148px" viewBox="0 0 126 148" version="1.1" xmlns="http://www.w3.org/2000/svg" xmlns:xlink="http://www.w3.org/1999/xlink">
    <!-- Generator: Sketch 45.2 (43514) - http://www.bohemiancoding.com/sketch -->
    <title>thought_diary</title>
    <desc>Created with Sketch.</desc>
    <defs></defs>
    <g id="End_User_mvp2" stroke="none" stroke-width="1" fill="none" fill-rule="evenodd" opacity="0.75">
        <g id="Practice_HD" transform="translate(-1232.000000, -125.000000)" fill="#FFFFFF">
            <g id="thought_diary" transform="translate(1232.000000, 125.000000)">
                <path d="M62.901798,132.904711 C55.4752501,132.904711 48.2496441,131.895019 41.4209399,129.897225 C40.6719746,129.678015 39.8748496,129.822494 39.250435,130.27752 C34.2484756,133.937652 25.272516,139.665327 15.969403,141.478787 C19.4933597,135.437244 20.6674584,127.484261 20.9780051,121.183652 C21.0162006,120.384866 20.6691191,119.615973 20.0447045,119.116109 C10.3314043,111.360747 4.98236339,101.33524 4.98236339,90.8845987 C4.98236339,74.9337954 17.4623517,60.4460485 37.0068603,53.3300472 C36.9786288,59.7784563 39.4115207,65.9594964 43.925241,70.6392844 C46.9426913,73.7696607 48.605029,78.1007066 48.605029,82.8386183 L48.605029,85.236636 C48.605029,86.6133373 49.721004,87.7276516 51.0960446,87.7276516 L73.6729496,87.7276516 C75.0479902,87.7276516 76.1639652,86.6133373 76.1639652,85.236636 L76.1639652,81.2111547 C76.1639652,77.0478373 77.7814647,72.8247355 80.7225238,69.3173855 C84.4374584,64.8850383 86.4850733,59.2536823 86.4850733,53.4662227 C86.4850733,53.1490334 86.4501991,52.8401474 86.435253,52.5246188 C107.117325,59.2437183 120.817911,74.3625224 120.817911,90.8862594 C120.817911,114.054365 94.8366183,132.904711 62.901798,132.904711 M42.1350311,50.9071193 C43.2476847,42.0141935 50.5280931,34.8317652 59.4442683,33.8320376 C60.2081798,33.7490037 60.9803946,33.7058261 61.7393241,33.7058261 C72.6366871,33.7058261 81.503042,42.5705204 81.503042,53.4695441 C81.503042,58.087887 79.8705965,62.5816792 76.9046272,66.1189214 C73.2112814,70.5246977 71.181934,75.8853633 71.181934,81.2144761 L71.181934,82.7489417 L64.8746824,82.7489417 L64.8746824,64.8020045 L69.9480509,62.7045693 C71.2201295,62.1797954 71.824616,60.7217209 71.2965207,59.4513029 C70.7717467,58.1792243 69.3219756,57.5697558 68.0432543,58.1028331 L54.0138543,63.9085602 C52.7417756,64.4333342 52.1372892,65.889748 52.6653845,67.1618266 C53.0622863,68.1200373 53.9906048,68.6996136 54.9687436,68.6996136 C55.2842722,68.6996136 55.6081043,68.6398292 55.9186509,68.5119571 L59.8943118,66.8645654 L59.8943118,82.7489417 L53.5870603,82.7489417 C53.5654715,76.7522368 51.4082519,71.2271641 47.5123035,67.1850761 C43.339022,62.8590123 41.3810837,56.9270737 42.1350311,50.9071193 M85.6082358,47.0427237 C82.768478,36.509049 73.1598004,28.7221342 61.7393241,28.7221342 C60.7960595,28.7221342 59.8361881,28.7736152 58.8896022,28.8815592 C48.543584,30.0423724 39.9695082,37.8442334 37.6428996,47.8381881 C14.7587694,55.3245204 0.000332135417,72.1505006 0.000332135417,90.8862594 C0.000332135417,102.509338 5.64663422,113.579412 15.9312074,122.190022 C15.4595751,129.294399 13.788934,138.1757 8.70892276,142.679456 C7.93504724,143.365316 7.66601755,144.456381 8.03302719,145.424556 C8.40003682,146.39273 9.32669464,147.033752 10.3612965,147.033752 C21.8116649,147.033752 33.2852829,140.661734 41.2033913,135.015432 C48.1350574,136.920228 55.4270905,137.886742 62.9001373,137.886742 C97.5833782,137.886742 125.799943,116.804447 125.799943,90.8862594 C125.799943,71.5294073 109.678089,53.9909967 85.6082358,47.0427237" id="Fill-1"></path>
                <path d="M71.1816018,104.945552 C71.1816018,106.420233 69.9842536,107.61426 68.5128938,107.61426 L56.2554362,107.61426 C54.7824156,107.61426 53.5867281,106.418572 53.5867281,104.945552 L53.5867281,96.0891607 L71.1816018,96.0891607 L71.1816018,104.945552 Z M73.6726174,91.1071295 L51.0940518,91.1071295 C49.7190112,91.1071295 48.6030362,92.2231045 48.6030362,93.5981451 L48.6030362,104.945552 C48.6030362,109.165332 52.0339951,112.596291 56.2537755,112.596291 L68.5112331,112.596291 C72.7310135,112.596291 76.1619724,109.165332 76.1619724,104.945552 L76.1619724,93.5981451 C76.1636331,92.2231045 75.0476581,91.1071295 73.6726174,91.1071295 L73.6726174,91.1071295 Z" id="Fill-4"></path>
                <path d="M54.9665847,60.6360299 C55.2821134,60.6360299 55.6059454,60.5762456 55.916492,60.4467128 L69.945892,54.6409857 C71.2179707,54.1162117 71.8224571,52.6597979 71.2960225,51.3877193 C70.7695878,50.1173013 69.3198167,49.5078328 68.0427561,50.0392495 L54.0116954,55.8449766 C52.7396167,56.3697505 52.1351303,57.8261643 52.6632256,59.098243 C53.0617881,60.0564536 53.9884459,60.6360299 54.9665847,60.6360299" id="Fill-6"></path>
                <path d="M34.656504,35.9585346 C35.1430824,36.4451129 35.7807824,36.6875718 36.4184824,36.6875718 C37.0561824,36.6875718 37.6938824,36.4451129 38.1804608,35.9585346 C39.1536175,34.9853778 39.1536175,33.4093952 38.1804608,32.4362385 L23.3439717,17.5980887 C22.3708149,16.624932 20.7948324,16.624932 19.8216756,17.5980887 C18.8485188,18.5712455 18.8485188,20.147228 19.8216756,21.1203848 L34.656504,35.9585346 Z" id="Fill-8"></path>
                <path d="M61.7389919,24.1076108 C63.1140326,24.1076108 64.2300076,22.9916358 64.2300076,21.6165951 L64.2300076,3.15152664 C64.2300076,1.77648602 63.1140326,0.660511016 61.7389919,0.660511016 C60.3639513,0.660511016 59.2479763,1.77648602 59.2479763,3.15152664 L59.2479763,21.6165951 C59.2479763,22.9916358 60.3622906,24.1076108 61.7389919,24.1076108" id="Fill-12"></path>
                <path d="M83.9935595,36.6875718 C84.6312595,36.6875718 85.2706201,36.4451129 85.7571985,35.9585346 L100.593688,21.1203848 C101.566844,20.147228 101.566844,18.5712455 100.593688,17.5980887 C99.6205308,16.624932 98.0445483,16.624932 97.0713915,17.5980887 L82.2332417,32.4362385 C81.260085,33.4093952 81.260085,34.9853778 82.2332417,35.9585346 C82.7181595,36.4451129 83.3558595,36.6875718 83.9935595,36.6875718" id="Fill-10"></path>
            </g>
        </g>
    </g>
</svg>