<?xml version="1.0" encoding="UTF-8"?>
<svg width="89px" height="138px" viewBox="0 0 89 138" version="1.1" xmlns="http://www.w3.org/2000/svg" xmlns:xlink="http://www.w3.org/1999/xlink">
    <!-- Generator: Sketch 45.2 (43514) - http://www.bohemiancoding.com/sketch -->
    <title>zen_room</title>
    <desc>Created with Sketch.</desc>
    <defs>
        <polygon id="path-1" points="0.000170174231 137.121673 87.7481917 137.121673 87.7481917 0.000679691647 0.000170174231 0.000679691647"></polygon>
    </defs>
    <g id="End_User_mvp2" stroke="none" stroke-width="1" fill="none" fill-rule="evenodd">
        <g id="Practice_HD" transform="translate(-665.000000, -143.000000)">
            <g id="zen_room" transform="translate(665.402344, 143.771220)">
                <mask id="mask-2" fill="white">
                    <use xlink:href="#path-1"></use>
                </mask>
                <g id="Clip-2"></g>
                <path d="M7.7693853,56.9183981 L9.2986915,55.8988606 C9.97838315,55.3890919 10.8279977,55.219169 11.5076894,55.219169 C11.8475352,55.219169 12.187381,55.219169 12.3573039,55.3890919 C13.3768414,55.5590148 14.3963789,56.2387064 14.9061476,57.2582439 L29.1796722,79.3482225 C30.3691326,81.2173745 29.8593638,83.9361411 27.9902118,85.1256015 L26.4609056,86.1451389 C25.611291,86.8248306 24.4218307,86.9947535 23.4022932,86.6549077 C22.3827557,86.4849848 21.3632182,85.8052931 20.8534495,84.7857556 L6.57992492,62.6957771 C5.22054162,60.8266251 5.90023327,58.1078585 7.7693853,56.9183981 L7.7693853,56.9183981 Z M19.3241433,50.9710962 C19.4940662,49.9515587 20.1737579,48.9320212 21.1932953,48.4222525 L22.7226015,47.402715 C24.5917536,46.2132546 27.3105202,46.7230234 28.4999805,48.5921754 L42.7735051,70.6821539 C43.4531968,71.5317685 43.6231197,72.7212289 43.2832739,73.7407664 C43.113351,74.7603038 42.4336593,75.7798413 41.4141218,76.28961 L39.8848156,77.3091475 C38.0156636,78.4986079 35.296897,77.9888392 34.1074366,76.1196871 L19.833912,54.0297086 C19.1542204,53.180094 18.9842975,51.9906336 19.3241433,50.9710962 L19.3241433,50.9710962 Z M2.50177503,99.2275039 C2.50177503,99.569049 2.67169794,99.9088948 2.67169794,100.248741 L15.0760705,127.436407 C15.5858392,128.455944 16.6053767,129.135636 17.6249142,129.135636 C17.96476,129.135636 18.4745287,129.135636 18.8143746,128.79579 C20.1737579,128.114399 20.8534495,126.41517 20.1737579,125.057486 L7.93930821,98.3778894 L6.410002,73.7407664 L15.5858392,87.844368 C16.9452225,90.0533659 19.1542204,91.5826721 21.872987,92.0924408 C22.5526786,92.2623638 23.2323703,92.2623638 23.9120619,92.2623638 C25.781214,92.2623638 27.650366,91.752595 29.1796722,90.7330575 L30.7089784,89.7135201 C33.0878992,88.1842139 34.4472825,85.975216 34.9570512,83.4263723 C35.6367428,83.5962952 36.3164345,83.5962952 37.166049,83.5962952 C39.0352011,83.5962952 40.9043531,83.0865265 42.6035822,82.066989 L44.1328884,81.0474516 C46.3418863,79.6880683 47.8711925,77.4790704 48.3809612,74.7603038 C48.89073,72.2114602 48.3809612,69.4926936 47.0215779,67.2836957 L32.7480533,45.1937172 C32.2382846,44.3441026 31.38867,43.4944881 30.7089784,42.8147964 L21.5331412,13.0782868 C21.1932953,11.7189035 21.3632182,10.3595202 22.0429099,9.17005986 C22.7226015,7.98059948 23.9120619,7.13098492 25.2714452,6.79113909 L26.9706743,6.28137036 C29.6894409,5.60167871 32.5781304,7.30090783 33.2578221,10.1895973 L47.3614238,56.4086294 C47.3614238,56.7484752 47.5313467,56.9183981 47.7012696,57.088321 C47.7012696,57.088321 47.7012696,57.2582439 47.8711925,57.2582439 C48.0411154,57.4281668 48.2110383,57.5980897 48.3809612,57.7680126 L48.5508841,57.7680126 C48.7208071,57.9379356 48.89073,57.9379356 49.2305758,58.1078585 L49.4004987,58.1078585 C49.5704216,58.1078585 49.9102674,58.2777814 50.0801903,58.2777814 L50.2501133,58.2777814 C50.4200362,58.2777814 50.759882,58.2777814 50.9298049,58.1078585 C51.0997278,58.1078585 51.0997278,57.9379356 51.2696507,57.9379356 L51.4395736,57.9379356 C51.4395736,57.9379356 51.6094966,57.9379356 51.6094966,57.7680126 C51.7794195,57.5980897 51.9493424,57.4281668 52.1192653,57.2582439 L52.2891882,57.088321 C52.2891882,56.9183981 52.4591111,56.9183981 52.4591111,56.7484752 L52.4591111,56.5785523 C52.4591111,56.4086294 52.629034,56.2387064 52.629034,56.2387064 L66.0529441,9.84975151 C66.3927899,8.49036821 67.2424044,7.47083074 68.4318648,6.62121618 C69.6213252,5.77160162 70.9807085,5.77160162 72.3400918,6.11144745 L74.0393209,6.62121618 C75.3987042,6.96106201 76.4182417,7.81067657 77.2678562,9.00013695 C77.9475479,10.1895973 78.1174708,11.5489806 77.777625,12.9083639 L65.5431753,60.6567022 C63.3341775,60.1469334 61.6349484,59.6371647 60.7853338,59.4672418 C58.5763359,58.7875501 53.9884173,58.6176272 51.6094966,62.8657 C48.3809612,68.643079 49.4004987,74.9302267 53.9884173,78.6685308 L54.1583402,78.8384537 L61.8048713,84.106064 L60.9552567,87.5045222 C56.0274923,89.5435972 40.9043531,96.6786602 39.5449698,110.444115 C39.3750469,111.971722 40.5645073,113.502728 42.0938135,113.502728 C43.6231197,113.670951 45.1524259,112.48319 45.1524259,110.953884 C46.3418863,98.3778894 64.0138691,92.2623638 64.183792,92.2623638 C65.2033295,91.9225179 65.8830211,91.2428263 66.0529441,90.2232888 L67.7521732,83.4263723 C68.092019,82.236912 67.5822503,81.0474516 66.5627128,80.3677599 L57.3868756,74.0806122 C55.0079548,72.0415372 54.668109,68.8130019 56.537261,65.5844666 C57.2169526,64.3950062 58.406413,64.734852 58.9161818,64.9047749 L59.2560276,64.9047749 C61.4650254,65.4145437 64.0138691,66.0942353 66.7326357,66.9438499 C72.1701689,68.4731561 77.777625,70.1723852 79.3069312,71.3618456 C85.0843102,75.1001497 80.6663145,92.7721325 77.2678562,99.2275039 C74.0393209,105.346428 65.2033295,123.698102 64.6935608,124.547717 C64.5236379,124.887563 64.5236379,125.057486 64.3537149,125.397332 L63.1642546,133.893477 C62.9943316,135.422783 64.0138691,136.95209 65.5431753,137.122012 L65.8830211,137.122012 C67.2424044,137.122012 68.6017877,136.102475 68.7717107,134.573169 L69.961171,126.41517 C71.3205543,123.698102 79.3069312,107.385503 82.1956207,101.776348 C85.2542331,96.0006678 92.9007641,73.2309976 82.3655436,66.4340812 C80.3264687,65.0746979 75.3987042,63.5453917 70.8107856,62.1860084 L83.2151582,14.2677472 C83.8948498,11.3790577 83.555004,8.49036821 82.0256978,5.94152454 C80.4963916,3.39268086 78.1174708,1.69345174 75.3987042,0.84383718 L73.6994751,0.334068445 C70.8107856,-0.345623203 67.9220961,-0.005777379 65.3732524,1.52352883 C62.8244087,3.05283503 61.1251796,5.4317558 60.2755651,8.15052239 L49.5704216,45.1937172 L39.0352011,9.00013695 C37.5058949,3.22275795 31.558593,-0.345623203 25.781214,1.183683 L24.0819848,1.69345174 C21.1932953,2.37314339 18.9842975,4.24229542 17.4549913,6.79113909 C15.9256851,9.33998277 15.5858392,12.2286723 16.2655309,15.1173618 L24.2519077,41.1155673 C22.5526786,41.1155673 20.8534495,41.625336 19.3241433,42.6448735 L17.7948371,43.664411 C15.4159163,45.1937172 14.056533,47.402715 13.5467643,49.9515587 C10.9979206,49.44179 8.27915403,49.9515587 6.07015618,51.310942 L4.54084997,52.3304795 C0.972468824,54.7094002 -0.726760294,58.957473 0.292777177,63.0356229 L2.50177503,99.2275039 Z" id="Fill-1" fill-opacity="0.75" fill="#FFFFFF" mask="url(#mask-2)"></path>
            </g>
        </g>
    </g>
</svg>