<?xml version="1.0" encoding="UTF-8"?>
<svg width="970px" height="368px" viewBox="0 0 970 368" version="1.1" xmlns="http://www.w3.org/2000/svg" xmlns:xlink="http://www.w3.org/1999/xlink">
    <title>Togetherall-Logo-RGB</title>
    <defs>
        <polygon id="path-1" points="0.06 0.828 63.7587765 0.828 63.7587765 124.811 0.06 124.811"></polygon>
        <polygon id="path-3" points="0.888 0.785 233.215 0.785 233.215 200.71 0.888 200.71"></polygon>
    </defs>
    <g id="Page-1" stroke="none" stroke-width="1" fill="none" fill-rule="evenodd">
        <g id="Desktop-HD" transform="translate(-224.000000, -187.000000)">
            <g id="Togetherall-Logo-RGB" transform="translate(224.000000, 187.000000)">
                <g id="Group-3" transform="translate(0.000000, 203.000000)">
                    <mask id="mask-2" fill="white">
                        <use xlink:href="#path-1"></use>
                    </mask>
                    <g id="Clip-2"></g>
                    <path d="M52.323,102.251 C54.598,101.872 56.873,103.009 57.82,105.095 L63.129,115.711 C64.645,118.555 63.318,122.157 60.285,123.105 C56.873,124.242 53.27,124.811 49.669,124.811 C29.763,124.811 13.649,108.697 13.649,88.791 L13.649,53.72 C13.649,52.582 12.702,51.635 11.564,51.635 L5.119,51.635 C2.275,51.635 0,49.36 0,46.516 L0,34.952 C0,32.109 2.275,29.833 5.119,29.833 L11.564,29.833 C12.702,29.833 13.649,28.885 13.649,27.748 L13.649,5.947 C13.649,3.104 15.925,0.828 18.768,0.828 L30.332,0.828 C33.176,0.828 35.451,3.104 35.451,5.947 L35.451,27.748 C35.451,28.885 36.398,29.833 37.536,29.833 L44.93,29.833 C47.773,29.833 50.048,32.109 50.048,34.952 L50.048,46.516 C50.048,49.36 47.773,51.635 44.93,51.635 L37.536,51.635 C36.398,51.635 35.451,52.582 35.451,55.994 L35.451,88.223 C35.451,96.13 41.807,102.914 49.693,102.823 C49.748,102.822 50.844,102.665 52.323,102.251" id="Fill-1" fill="#000000" mask="url(#mask-2)"></path>
                </g>
                <path d="M408.46,305.251 C410.735,304.872 413.01,306.009 413.958,308.095 L419.266,318.711 C420.783,321.555 419.456,325.157 416.423,326.105 C413.01,327.242 409.408,327.811 405.807,327.811 C385.901,327.811 369.787,311.697 369.787,291.791 L369.787,256.72 C369.787,255.582 368.839,254.635 367.702,254.635 L361.256,254.635 C358.412,254.635 356.138,252.36 356.138,249.516 L356.138,237.952 C356.138,235.109 358.412,232.833 361.256,232.833 L367.702,232.833 C368.839,232.833 369.787,231.885 369.787,230.748 L369.787,208.947 C369.787,206.104 372.061,203.828 374.905,203.828 L386.47,203.828 C389.313,203.828 391.588,206.104 391.588,208.947 L391.588,230.748 C391.588,231.885 392.536,232.833 393.674,232.833 L401.067,232.833 C403.91,232.833 406.185,235.109 406.185,237.952 L406.185,249.516 C406.185,252.36 403.91,254.635 401.067,254.635 L393.674,254.635 C392.536,254.635 391.588,255.582 391.588,258.994 L391.588,291.223 C391.588,299.13 397.945,305.914 405.831,305.823 C405.886,305.822 406.981,305.665 408.46,305.251" id="Fill-4" fill="#000000"></path>
                <path d="M130.235,273.782 C130.235,263.355 121.705,254.825 111.278,254.825 C100.851,254.825 92.32,263.355 92.32,273.782 L92.32,286.673 C92.32,297.1 100.851,305.63 111.278,305.63 C121.705,305.63 130.235,297.1 130.235,286.673 L130.235,273.782 Z M152.037,273.782 L152.037,286.673 C152.037,309.233 133.648,327.621 111.089,327.621 C88.529,327.621 70.141,309.233 70.141,286.673 L70.141,273.782 C70.141,251.222 88.529,232.833 111.089,232.833 C133.648,232.833 152.037,251.222 152.037,273.782 L152.037,273.782 Z" id="Fill-5" fill="#000000"></path>
                <path d="M226.536,286.942 L226.536,273.887 C226.536,263.46 218.006,254.93 207.579,254.93 C197.152,254.93 188.621,263.46 188.621,273.887 L188.621,286.942 C188.621,297.368 197.152,305.899 207.579,305.899 C218.006,305.899 226.536,297.368 226.536,286.942 Z M226.916,237.299 C226.916,234.455 229.19,232.181 232.034,232.181 L243.977,232.181 C246.821,232.181 249.096,234.455 249.096,237.299 L249.096,328.19 C249.096,350.18 231.275,368 209.285,368 L207.01,368 C195.636,368 185.019,363.261 177.436,354.92 C175.351,352.645 175.73,349.043 178.194,347.337 L188.242,340.512 C190.138,339.185 192.792,339.374 194.498,341.08 C197.721,344.114 202.081,345.821 206.631,345.821 L208.906,345.821 C218.764,345.821 226.725,337.858 226.725,328 L226.725,322.96 C220.091,326.373 212.508,328.079 204.546,327.511 C182.934,325.993 166.631,307.415 166.631,285.804 L166.631,274.646 C166.631,253.034 182.934,234.455 204.546,232.939 C212.508,232.37 220.091,234.077 226.725,237.489 L226.916,237.299 L226.916,237.299 Z" id="Fill-6" fill="#000000"></path>
                <path d="M290.852,269.232 L322.133,269.232 C323.649,269.232 324.597,267.715 324.028,266.388 C321.184,259.564 314.359,254.825 306.587,254.825 C298.814,254.825 291.99,259.564 289.146,266.388 C288.577,267.715 289.525,269.232 291.042,269.232 L290.852,269.232 Z M347.724,286.293 C347.724,289.137 345.45,291.412 342.606,291.412 L291.042,291.412 C289.525,291.412 288.577,292.929 289.146,294.256 C291.99,301.08 298.814,305.82 306.587,305.82 C311.516,305.82 316.256,303.924 319.857,300.512 C321.563,298.806 324.218,298.617 327.251,300.702 L335.782,306.578 C338.435,308.285 339.005,311.886 336.919,314.161 C328.957,322.882 317.583,327.811 305.64,327.621 C283.08,327.052 265.449,307.906 265.449,285.346 L265.449,274.73 C265.449,252.549 282.701,233.592 304.881,232.833 L306.767,232.831 C329.327,232.831 347.724,251.22 347.724,273.78 L347.724,286.293 L347.724,286.293 Z" id="Fill-7" fill="#000000"></path>
                <path d="M558.092,269.232 L589.372,269.232 C590.889,269.232 591.836,267.715 591.267,266.388 C588.424,259.564 581.599,254.825 573.826,254.825 C566.054,254.825 559.229,259.564 556.386,266.388 C555.816,267.715 556.765,269.232 558.281,269.232 L558.092,269.232 Z M614.964,286.293 C614.964,289.137 612.689,291.412 609.846,291.412 L558.281,291.412 C556.765,291.412 555.816,292.929 556.386,294.256 C559.229,301.08 566.054,305.82 573.826,305.82 C578.756,305.82 583.495,303.924 587.097,300.512 C588.803,298.806 591.457,298.617 594.49,300.702 L603.021,306.578 C605.675,308.285 606.244,311.886 604.158,314.161 C596.196,322.882 584.822,327.811 572.879,327.621 C550.319,327.052 532.688,307.906 532.688,285.346 L532.688,274.73 C532.688,252.549 549.94,233.592 572.12,232.833 L574.007,232.831 C596.566,232.831 614.964,251.22 614.964,273.78 L614.964,286.293 L614.964,286.293 Z" id="Fill-8" fill="#000000"></path>
                <path d="M478.23,232.833 C499.843,234.35 516.146,252.739 516.146,274.35 L516.146,322.5 C516.146,325.344 513.871,327.618 511.027,327.618 L499.464,327.618 C496.62,327.618 494.345,325.344 494.345,322.5 L494.345,273.403 C494.345,262.217 484.866,253.308 473.491,254.445 C463.633,255.393 456.239,264.114 456.239,273.971 L456.239,322.5 C456.239,325.344 453.965,327.618 451.121,327.618 L439.557,327.618 C436.713,327.618 434.438,325.344 434.438,322.5 L434.438,208.948 C434.438,206.104 436.713,203.828 439.557,203.828 L451.121,203.828 C453.965,203.828 456.239,206.104 456.239,208.948 L456.239,233.971 C456.239,235.488 457.756,236.436 459.083,235.867 C463.932,233.833 469.06,232.811 474.577,232.796 C475.747,232.793 478.23,232.833 478.23,232.833" id="Fill-9" fill="#000000"></path>
                <path d="M672.667,232.833 C686.118,232.841 698.242,239.664 705.82,250.275 C707.526,252.739 706.768,256.151 704.114,257.478 L693.498,262.976 C691.413,264.114 688.759,263.544 687.242,261.649 C683.261,256.91 677.194,254.255 670.749,255.014 C660.891,255.961 653.687,264.682 653.687,274.54 L653.687,322.502 C653.687,325.346 651.412,327.621 648.568,327.621 L636.625,327.621 C633.782,327.621 631.507,325.346 631.507,322.502 L631.507,237.299 C631.507,234.455 633.782,232.181 636.625,232.181 L648.568,232.181 C651.412,232.181 653.687,234.455 653.687,237.299 C659.369,234.269 665.809,232.836 672.627,232.833 C672.633,232.833 672.66,232.833 672.667,232.833" id="Fill-10" fill="#000000"></path>
                <path d="M773.391,286.863 L773.391,273.894 C773.391,263.467 764.859,254.937 754.432,254.937 C744.006,254.937 735.475,263.467 735.475,273.894 L735.475,286.863 C735.475,297.289 744.006,305.82 754.432,305.82 C764.859,305.82 773.391,297.289 773.391,286.863 Z M773.58,237.306 L773.58,236.927 C773.58,234.273 775.665,232.188 778.319,232.188 L791.02,232.188 C793.675,232.188 795.76,234.273 795.76,236.927 L795.76,322.88 C795.76,325.534 793.675,327.619 791.02,327.619 L778.319,327.619 C775.665,327.619 773.58,325.534 773.58,322.88 C766.944,326.292 759.361,328.19 751.399,327.621 C729.788,326.105 713.484,307.526 713.484,284.208 L713.484,274.653 C713.484,253.04 729.788,234.462 751.399,232.946 C759.361,232.377 766.944,234.083 773.58,237.495 L773.58,237.306 L773.58,237.306 Z" id="Fill-11" fill="#000000"></path>
                <path d="M817.179,322.502 L817.179,208.947 C817.179,206.103 819.453,203.828 822.297,203.828 L834.24,203.828 C837.084,203.828 839.359,206.103 839.359,208.947 L839.359,322.502 C839.359,325.346 837.084,327.621 834.24,327.621 L822.297,327.621 C819.453,327.621 817.179,325.346 817.179,322.502" id="Fill-12" fill="#000000"></path>
                <path d="M858.125,322.502 L858.125,208.947 C858.125,206.103 860.4,203.828 863.243,203.828 L875.186,203.828 C878.03,203.828 880.306,206.103 880.306,208.947 L880.306,322.502 C880.306,325.346 878.03,327.621 875.186,327.621 L863.243,327.621 C860.4,327.621 858.125,325.346 858.125,322.502" id="Fill-13" fill="#000000"></path>
                <g id="Group-17" transform="translate(736.000000, 0.000000)">
                    <mask id="mask-4" fill="white">
                        <use xlink:href="#path-3"></use>
                    </mask>
                    <g id="Clip-15"></g>
                    <path d="M70.178,68.157 C69.567,52.982 73.072,40.003 80.58,29.4412662 C69.867,29.398 43.196,31.28 23.438,49.414 C8.475,63.148 0.888,82.938 0.888,108.236 C0.888,142.095 15.281,165.179 27.356,178.582 C40.448,193.114 53.629,199.655 54.183,199.926 C55.256,200.451 56.415,200.71 57.572,200.71 C58.993,200.71 60.411,200.318 61.655,199.541 C63.913,198.132 65.285,195.659 65.285,192.998 L65.285,164.397 C67.099,163.542 69.047,162.64 71.056,161.711 C83.195,156.093 98.97,148.79 112.741,139.18 C109.088,136.639 105.496,133.912 102.049,130.954 C81.881,113.648 71.158,92.52 70.178,68.157" id="Fill-14" fill="#FFCA3A" mask="url(#mask-4)"></path>
                    <path d="M210.376,25.058 C188.476,3.275 157.747,0.785 144.877,0.785 C144.662,0.785 144.452,0.785 144.248,0.787 C140.432,0.806 106.38,1.599 85.649,23.288 C83.789,25.235 82.108,27.292 80.58,29.442 C83.28,29.453 84.983,29.584 85.288,29.61 C85.95,29.673 100.045,31.089 114.213,39.157 C127.748,46.864 143.898,62.133 143.975,91.109 C144.03,111.556 129.949,127.17 112.741,139.18 C126.628,148.84 141.434,155.668 152.892,160.942 C155.548,162.164 157.989,163.288 160.187,164.339 L160.187,192.997 C160.187,195.76 161.665,198.31 164.06,199.686 C165.25,200.368 166.575,200.71 167.9,200.71 C169.244,200.71 170.588,200.359 171.788,199.658 C172.424,199.287 187.518,190.368 202.605,172.206 C216.547,155.425 233.174,127.192 233.216082,87.996 C233.245,61.337 225.56,40.161 210.376,25.058" id="Fill-16" fill="#00A9A6" mask="url(#mask-4)"></path>
                </g>
                <path d="M879.975161,91.109 C879.898,62.133 863.748,46.864 850.213,39.157 C836.045,31.089 821.95,29.673 821.288,29.61 C820.983,29.584 819.28,29.453 816.58,29.442 C809.072,40.003 805.567,52.982 806.178,68.157 C807.158,92.52 817.881,113.648 838.049,130.954 C841.496,133.912 845.088,136.639 848.741,139.18 C865.949,127.17 880.03,111.556 879.975161,91.109" id="Fill-18" fill="#4C8C2B"></path>
            </g>
        </g>
    </g>
</svg>