<?xml version="1.0" encoding="UTF-8"?>
<svg width="30px" height="20px" viewBox="0 0 30 20" version="1.1" xmlns="http://www.w3.org/2000/svg" xmlns:xlink="http://www.w3.org/1999/xlink">
    <!-- Generator: Sketch 45.2 (43514) - http://www.bohemiancoding.com/sketch -->
    <title>Backward@2x</title>
    <desc>Created with Sketch.</desc>
    <defs></defs>
    <g id="End_User_mvp2" stroke="none" stroke-width="1" fill="none" fill-rule="evenodd">
        <g id="Zen_room_HD" transform="translate(-301.000000, -819.000000)" fill="#F7AD6F">
            <g id="Backward" transform="translate(301.000000, 814.000000)">
                <path d="M1.30618846,16.9263438 L13.0106554,23.7075915 C13.4264922,23.948867 13.8983823,24.0767505 14.3791434,24.0784555 C14.7793227,24.0804682 15.1733012,23.9795791 15.5232588,23.7854729 C16.2900222,23.3414952 16.7514288,22.5126723 16.724858,21.6270446 L16.724858,18.3337726 L25.9964573,23.7020285 C26.4122942,23.943304 26.8841842,24.0711875 27.3649454,24.0728925 C27.7651247,24.0749053 28.1591031,23.9740162 28.5090607,23.77991 C29.2758242,23.3359323 29.7372307,22.5071094 29.71066,21.6214817 L29.71066,8.01262827 C29.7365409,7.12765693 29.2752273,6.29971285 28.5090607,5.85605428 C27.7156945,5.43675919 26.7595609,5.46921834 25.9964573,5.941353 L16.724858,11.3077547 L16.724858,8.01262827 C16.750739,7.12765693 16.2894253,6.29971285 15.5232588,5.85605428 C14.7298926,5.43675919 13.773759,5.46921834 13.0106554,5.941353 L1.30618846,12.7207464 C0.506276536,13.1161857 8.8817842e-15,13.9312271 8.8817842e-15,14.8235451 C-9.65240959e-14,15.7158631 0.506276536,16.5309044 1.30618846,16.9263438 L1.30618846,16.9263438 L1.30618846,16.9263438 L1.30618846,16.9263438 Z M26.0187091,10.1376788 L26.0187091,19.5261002 L17.9153314,14.8309624 L26.0187091,10.1376788 L26.0187091,10.1376788 L26.0187091,10.1376788 Z M13.0384702,10.1376788 L13.0384702,19.5261002 L4.93509241,14.8309624 L13.0384702,10.1376788 L13.0384702,10.1376788 L13.0384702,10.1376788 Z" id="Backward-Icon"></path>
            </g>
        </g>
    </g>
</svg>